<svg xmlns="http://www.w3.org/2000/svg" viewBox="0 0 1700 600">
    <style>
        .base{animation-duration:3s;animation-iteration-count:infinite;fill:none;stroke:#06c;stroke-linecap:round;stroke-width:12px}#m1{animation-name:m1;animation-timing-function:cubic-bezier(0.43,
        0, 0.59, 1);stroke-dasharray:380}@keyframes
        m1{0%{stroke-dashoffset:1282.7}100%{stroke-dashoffset:522.7}}#m2{animation-name:m2;animation-timing-function:cubic-bezier(0.43,
        0, 0.59, 1);stroke-dasharray:380}@keyframes
        m2{0%{stroke-dashoffset:1138.1}100%{stroke-dashoffset:378.1}}#u{animation-name:u;animation-timing-function:cubic-bezier(0.14,
        0, 0.83, 1);stroke-dasharray:485}@keyframes
        u{0%{stroke-dashoffset:1552.6}100%{stroke-dashoffset:582.6}}#s1{animation-name:s1;animation-timing-function:cubic-bezier(0.33,
        0, 0.33, 1);stroke-dasharray:300}@keyframes
        s1{0%{stroke-dashoffset:400}100%{stroke-dashoffset:1000}}#s2{animation-name:s2;animation-timing-function:cubic-bezier(0.52,
        0, 0.12, 1);stroke-dasharray:300}@keyframes
        s2{0%{stroke-dashoffset:951.8}100%{stroke-dashoffset:351.8}}#i{animation-name:i;animation-timing-function:cubic-bezier(0.5,
        0.805, 0.515, 0.25);stroke-dasharray:200}@keyframes
        i{0%{stroke-dashoffset:0}100%{stroke-dashoffset:400}}#c-1{animation-name:c-1;animation-timing-function:cubic-bezier(0.19,
        0, 0.55, 1);stroke-dasharray:430}@keyframes
        c-1{0%{stroke-dashoffset:495}100%{stroke-dashoffset:1355}}#a1{animation-name:a1;stroke-dasharray:485}@keyframes
        a1{0%{animation-timing-function:cubic-bezier(0.5, 0, 0.2,
        0.42);stroke-dashoffset:1552.8}30%{animation-timing-function:cubic-bezier(0.94, 0.6, 0.88,
        1);stroke-dashoffset:1240.8}100%{stroke-dashoffset:582.8}}#a2{animation-name:a2;animation-timing-function:cubic-bezier(0.35,
        0.82, 0.57, 0.18);stroke-dasharray:190}@keyframes
        a2{0%{stroke-dashoffset:0}100%{stroke-dashoffset:380}}#l{animation-name:l;animation-timing-function:cubic-bezier(0.49,
        0.04, 0.5, 1);stroke-dasharray:300 790}@keyframes
        l{0%{stroke-dashoffset:1332.4}100%{stroke-dashoffset:242.4}}#c-2{animation-name:c-2;animation-timing-function:cubic-bezier(0.13,
        0, 0.43, 1);stroke-dasharray:430}@keyframes c-2{0%{stroke-dashoffset:1360}100%{stroke-dashoffset:500}}
    </style>
    <path id="m1"
          d="M111.9 477.5A49.3 49.3 0 0 1 64.5 525 49 49 0 0 1 17 486.5l.1-239.2A49.3 49.3 0 0 1 64.5 200a49 49 0 0 1 47.5 38.4z"
          class="base"/>
    <path id="m2"
          d="M113 335.6V478a48.8 48.8 0 0 0 47 46.6 48.6 48.6 0 0 0 47-38l1-97.4v-142a49.8 49.8 0 0 0-48-47.7 49.6 49.6 0 0 0-48 38.8z"
          class="base"/>
    <path id="u"
          d="M252.1 105.1c0-51.8 42.8-94.4 94.5-94.3S441 53.3 441 105l-.1 190.1c0 51.8-42.8 94.4-94.5 94.4S252 347 252 295.2z"
          class="base"/>
    <path id="s1"
          d="M683.3 295a47.7 47.7 0 0 0 46.8-55.9 48 48 0 0 0-47.4-39.1H534.6a47.9 47.9 0 0 0-47.4 39.1 47.7 47.7 0 0 0 46.7 55.9z"
          class="base"/>
    <path id="s2"
          d="M435.7 390a47.7 47.7 0 0 1-46.8-55.9 47.9 47.9 0 0 1 47.4-39.1h148.1a47.9 47.9 0 0 1 47.4 39.1 47.7 47.7 0 0 1-46.7 55.9z"
          class="base"/>
    <path id="i" d="M678 389V200" class="base"/>
    <path id="c-1"
          d="M953.2 200c51.8 0 94.4 42.8 94.4 94.6s-42.6 94.3-94.4 94.4H817c-51.8 0-94.3-42.7-94.4-94.4s42.6-94.5 94.4-94.6z"
          class="base"/>
    <path id="a1"
          d="M1119 483.8c1.3 51.6-43.2 94.5-94.6 94.5S928.7 535 930 483.7V294.4c-1.3-51.6 43.2-94.5 94.6-94.5s95.7 43.2 94.4 94.7z"
          class="base"/>
    <path id="a2" d="M1119 295l-189-.2" class="base"/>
    <path id="l"
          d="M1257.5 389h58a93.5 93.5 0 0 0 93.5-93.6V103.6a93.5 93.5 0 0 0-93.5-93.6h-57.8a93.7 93.7 0 0 0-93.7 93.7v191.8a93.5 93.5 0 0 0 93.5 93.5z"
          class="base"/>
    <path id="c-2"
          d="M1591.4 200c51.9 0 94.5 42.8 94.4 94.6s-42.6 94.3-94.4 94.4h-136.1c-51.8 0-94.4-42.7-94.4-94.4s42.5-94.5 94.4-94.6z"
          class="base"/>
</svg>